<svg viewBox="0 0 58 58" fill="none" xmlns="http://www.w3.org/2000/svg">
  <path
    d="M49.3 4.83398H8.7C6.39262 4.83398 4.17974 5.75059 2.54817 7.38216C0.916605 9.01372 0 11.2266 0 13.534V42.534C0 44.8414 0.916605 47.0542 2.54817 48.6858C4.17974 50.3174 6.39262 51.234 8.7 51.234H49.3C51.6074 51.234 53.8203 50.3174 55.4518 48.6858C57.0834 47.0542 58 44.8414 58 42.534V13.534C58 11.2266 57.0834 9.01372 55.4518 7.38216C53.8203 5.75059 51.6074 4.83398 49.3 4.83398ZM49.3 10.634L30.45 23.597C30.0091 23.8515 29.5091 23.9855 29 23.9855C28.4909 23.9855 27.9909 23.8515 27.55 23.597L8.7 10.634H49.3Z"
    fill="currentColor" />
</svg>