<svg viewBox="0 0 32 32" fill="none" xmlns="http://www.w3.org/2000/svg">
  <path fill-rule="evenodd" clip-rule="evenodd"
    d="M1.33334 3.78465C1.33334 3.1347 1.59154 2.51136 2.05113 2.05177C2.51072 1.59218 3.13405 1.33399 3.78401 1.33399H28.2133C28.5354 1.33346 28.8545 1.39647 29.1522 1.51941C29.4499 1.64235 29.7205 1.8228 29.9483 2.05044C30.1762 2.27807 30.357 2.54842 30.4802 2.846C30.6035 3.14358 30.6668 3.46255 30.6667 3.78465V28.214C30.667 28.5361 30.6038 28.8552 30.4808 29.1529C30.3577 29.4507 30.1771 29.7212 29.9494 29.9491C29.7216 30.1769 29.4512 30.3577 29.1535 30.4809C28.8559 30.6042 28.5368 30.6675 28.2147 30.6673H3.78401C3.46207 30.6673 3.14329 30.6039 2.84587 30.4806C2.54846 30.3574 2.27824 30.1768 2.05066 29.9491C1.82307 29.7214 1.64259 29.451 1.51951 29.1536C1.39643 28.8561 1.33317 28.5373 1.33334 28.2153V3.78465ZM12.944 12.518H16.916V14.5127C17.4893 13.366 18.956 12.334 21.16 12.334C25.3853 12.334 26.3867 14.618 26.3867 18.8087V26.5713H22.1107V19.7633C22.1107 17.3767 21.5373 16.03 20.0813 16.03C18.0613 16.03 17.2213 17.482 17.2213 19.7633V26.5713H12.944V12.518ZM5.61068 26.3887H9.88801V12.334H5.61068V26.3873V26.3887ZM10.5 7.74999C10.5081 8.11622 10.4429 8.48037 10.3083 8.82107C10.1738 9.16178 9.97248 9.47217 9.71632 9.73403C9.46016 9.99589 9.15427 10.204 8.81662 10.346C8.47896 10.488 8.11633 10.5612 7.75001 10.5612C7.38369 10.5612 7.02106 10.488 6.6834 10.346C6.34575 10.204 6.03986 9.99589 5.7837 9.73403C5.52754 9.47217 5.32627 9.16178 5.19169 8.82107C5.05711 8.48037 4.99195 8.11622 5.00001 7.74999C5.01584 7.03113 5.31252 6.34704 5.82652 5.84424C6.34052 5.34143 7.03097 5.05988 7.75001 5.05988C8.46904 5.05988 9.15949 5.34143 9.6735 5.84424C10.1875 6.34704 10.4842 7.03113 10.5 7.74999Z"
    fill="currentColor" />
</svg>