<svg viewBox="0 0 58 58" fill="none" xmlns="http://www.w3.org/2000/svg">
  <path fill-rule="evenodd" clip-rule="evenodd"
    d="M18.0403 2.57552C20.875 2.44502 21.7788 2.41602 28.9998 2.41602C36.2208 2.41602 37.1247 2.44743 39.957 2.57552C42.7893 2.7036 44.7227 3.15552 46.4143 3.81043C48.1857 4.47985 49.7928 5.52627 51.122 6.8796C52.4753 8.20635 53.5193 9.81102 54.1863 11.5848C54.8437 13.2765 55.2932 15.2098 55.4237 18.0373C55.5542 20.8769 55.5832 21.7808 55.5832 28.9993C55.5832 36.2203 55.5518 37.1242 55.4237 39.9589C55.2956 42.7864 54.8437 44.7198 54.1863 46.4114C53.5193 48.1855 52.4736 49.7928 51.122 51.1215C49.7928 52.4748 48.1857 53.5188 46.4143 54.1858C44.7227 54.8432 42.7893 55.2927 39.9618 55.4232C37.1247 55.5537 36.2208 55.5827 28.9998 55.5827C21.7788 55.5827 20.875 55.5513 18.0403 55.4232C15.2128 55.2951 13.2794 54.8432 11.5878 54.1858C9.81373 53.5188 8.2064 52.473 6.87767 51.1215C5.52526 49.794 4.47868 48.1874 3.81092 46.4138C3.156 44.7222 2.7065 42.7888 2.576 39.9613C2.4455 37.1218 2.4165 36.2179 2.4165 28.9993C2.4165 21.7783 2.44792 20.8745 2.576 18.0422C2.70409 15.2098 3.156 13.2765 3.81092 11.5848C4.47967 9.81121 5.52704 8.20469 6.88009 6.87718C8.20693 5.52506 9.81264 4.4785 11.5853 3.81043C13.277 3.15552 15.2103 2.70602 18.0378 2.57552H18.0403ZM39.7419 7.36052C36.9386 7.23243 36.0976 7.20585 28.9998 7.20585C21.9021 7.20585 21.0611 7.23243 18.2578 7.36052C15.6647 7.47893 14.2582 7.91152 13.3205 8.27643C12.0808 8.75977 11.1938 9.33252 10.2634 10.2629C9.38145 11.121 8.70269 12.1655 8.27692 13.32C7.912 14.2577 7.47942 15.6642 7.361 18.2573C7.23292 21.0606 7.20634 21.9016 7.20634 28.9993C7.20634 36.0971 7.23292 36.9381 7.361 39.7414C7.47942 42.3345 7.912 43.741 8.27692 44.6787C8.70225 45.8314 9.38134 46.8778 10.2634 47.7358C11.1213 48.6178 12.1678 49.2969 13.3205 49.7223C14.2582 50.0872 15.6647 50.5198 18.2578 50.6382C21.0611 50.7663 21.8997 50.7928 28.9998 50.7928C36.1 50.7928 36.9386 50.7663 39.7419 50.6382C42.335 50.5198 43.7415 50.0872 44.6792 49.7223C45.9189 49.2389 46.8058 48.6662 47.7363 47.7358C48.6183 46.8778 49.2974 45.8314 49.7228 44.6787C50.0877 43.741 50.5203 42.3345 50.6387 39.7414C50.7668 36.9381 50.7933 36.0971 50.7933 28.9993C50.7933 21.9016 50.7668 21.0606 50.6387 18.2573C50.5203 15.6642 50.0877 14.2577 49.7228 13.32C49.2394 12.0803 48.6667 11.1933 47.7363 10.2629C46.8782 9.38102 45.8336 8.70227 44.6792 8.27643C43.7415 7.91152 42.335 7.47893 39.7419 7.36052ZM25.6044 37.1943C27.5007 37.9836 29.6122 38.0902 31.5782 37.4957C33.5443 36.9012 35.243 35.6426 36.3842 33.9348C37.5254 32.227 38.0383 30.176 37.8353 28.132C37.6323 26.0881 36.7259 24.178 35.2711 22.7281C34.3437 21.8012 33.2223 21.0916 31.9876 20.6501C30.753 20.2087 29.4359 20.0465 28.131 20.1752C26.8262 20.3039 25.5661 20.7203 24.4415 21.3944C23.3169 22.0686 22.3558 22.9836 21.6273 24.0738C20.8988 25.164 20.4211 26.4021 20.2286 27.6991C20.036 28.996 20.1335 30.3196 20.5138 31.5743C20.8942 32.8291 21.548 33.984 22.4282 34.9558C23.3085 35.9275 24.3932 36.692 25.6044 37.1943ZM19.338 19.3375C20.6068 18.0687 22.1131 17.0622 23.7709 16.3756C25.4287 15.6889 27.2055 15.3355 28.9998 15.3355C30.7942 15.3355 32.571 15.6889 34.2288 16.3756C35.8866 17.0622 37.3929 18.0687 38.6617 19.3375C39.9305 20.6063 40.937 22.1126 41.6236 23.7704C42.3103 25.4282 42.6637 27.205 42.6637 28.9993C42.6637 30.7937 42.3103 32.5705 41.6236 34.2283C40.937 35.8861 39.9305 37.3924 38.6617 38.6612C36.0992 41.2237 32.6237 42.6632 28.9998 42.6632C25.3759 42.6632 21.9005 41.2237 19.338 38.6612C16.7755 36.0987 15.3359 32.6232 15.3359 28.9993C15.3359 25.3755 16.7755 21.9 19.338 19.3375ZM45.6942 17.3703C46.0086 17.0737 46.2603 16.7171 46.4344 16.3215C46.6085 15.9258 46.7015 15.4993 46.7078 15.0671C46.7141 14.6349 46.6336 14.2058 46.4711 13.8053C46.3086 13.4048 46.0674 13.0409 45.7617 12.7353C45.4561 12.4296 45.0922 12.1884 44.6917 12.0259C44.2912 11.8634 43.8621 11.783 43.4299 11.7893C42.9977 11.7956 42.5712 11.8885 42.1756 12.0626C41.7799 12.2367 41.4233 12.4884 41.1267 12.8028C40.5498 13.4143 40.234 14.2266 40.2463 15.0671C40.2585 15.9076 40.5979 16.7103 41.1923 17.3047C41.7867 17.8991 42.5894 18.2385 43.4299 18.2507C44.2705 18.263 45.0827 17.9472 45.6942 17.3703Z"
    fill="currentColor" />
</svg>