<svg viewBox="0 0 32 32" fill="none" xmlns="http://www.w3.org/2000/svg">
  <path
    d="M31.524 6.58342C30.4107 7.07675 29.2147 7.41009 27.9573 7.56075C29.2547 6.78448 30.2252 5.56271 30.688 4.12342C29.4691 4.84741 28.1351 5.35701 26.744 5.63009C25.8085 4.63124 24.5694 3.96919 23.2191 3.74672C21.8688 3.52425 20.4828 3.75381 19.2763 4.39976C18.0698 5.04571 17.1104 6.0719 16.5469 7.31903C15.9834 8.56615 15.8474 9.96442 16.16 11.2968C13.6902 11.1727 11.2742 10.5308 9.06856 9.41263C6.86296 8.29443 4.91712 6.72497 3.35733 4.80609C2.82399 5.72609 2.51733 6.79275 2.51733 7.92875C2.51673 8.95141 2.76857 9.95841 3.2505 10.8604C3.73243 11.7624 4.42954 12.5315 5.27999 13.0994C4.2937 13.068 3.32916 12.8015 2.46666 12.3221V12.4021C2.46656 13.8364 2.96271 15.2266 3.87091 16.3367C4.77911 17.4469 6.04342 18.2087 7.44933 18.4928C6.53437 18.7404 5.57511 18.7768 4.64399 18.5994C5.04066 19.8336 5.81332 20.9128 6.85382 21.686C7.89431 22.4592 9.15055 22.8877 10.4467 22.9114C8.24644 24.6386 5.52918 25.5755 2.73199 25.5714C2.2365 25.5716 1.74143 25.5426 1.24933 25.4848C4.08863 27.3103 7.39378 28.2792 10.7693 28.2754C22.196 28.2754 28.4427 18.8114 28.4427 10.6034C28.4427 10.3368 28.436 10.0674 28.424 9.80075C29.639 8.92205 30.6879 7.83395 31.5213 6.58742L31.524 6.58342Z"
    fill="currentColor" />
</svg>